<svg width="197" height="114" viewBox="0 0 197 114" fill="none" xmlns="http://www.w3.org/2000/svg">
<path d="M98.5 113.737L0 56.8683L98.5 0L197 56.8683L98.5 113.737Z" fill="#7F6B6E"/>
<mask id="mask0_3_732" style="mask-type:luminance" maskUnits="userSpaceOnUse" x="0" y="0" width="197" height="114">
<path d="M98.5 113.737L0 56.8683L98.5 0L197 56.8683L98.5 113.737Z" fill="white"/>
</mask>
<g mask="url(#mask0_3_732)">
<path d="M-120.42 63.0989L99.0664 -63.637" stroke="#A88886" stroke-width="3" stroke-miterlimit="10"/>
</g>
<mask id="mask1_3_732" style="mask-type:luminance" maskUnits="userSpaceOnUse" x="0" y="0" width="197" height="114">
<path d="M98.5 113.737L0 56.8683L98.5 0L197 56.8683L98.5 113.737Z" fill="white"/>
</mask>
<g mask="url(#mask1_3_732)">
<path d="M-115.691 67.8285L103.824 -58.9074" stroke="#A88886" stroke-width="3" stroke-miterlimit="10"/>
</g>
<mask id="mask2_3_732" style="mask-type:luminance" maskUnits="userSpaceOnUse" x="0" y="0" width="197" height="114">
<path d="M98.5 113.737L0 56.8683L98.5 0L197 56.8683L98.5 113.737Z" fill="white"/>
</mask>
<g mask="url(#mask2_3_732)">
<path d="M-110.961 72.5864L108.554 -54.1495" stroke="#A88886" stroke-width="3" stroke-miterlimit="10"/>
</g>
<mask id="mask3_3_732" style="mask-type:luminance" maskUnits="userSpaceOnUse" x="0" y="0" width="197" height="114">
<path d="M98.5 113.737L0 56.8683L98.5 0L197 56.8683L98.5 113.737Z" fill="white"/>
</mask>
<g mask="url(#mask3_3_732)">
<path d="M-106.203 77.316L113.284 -49.4199" stroke="#A88886" stroke-width="3" stroke-miterlimit="10"/>
</g>
<mask id="mask4_3_732" style="mask-type:luminance" maskUnits="userSpaceOnUse" x="0" y="0" width="197" height="114">
<path d="M98.5 113.737L0 56.8683L98.5 0L197 56.8683L98.5 113.737Z" fill="white"/>
</mask>
<g mask="url(#mask4_3_732)">
<path d="M-101.474 82.0456L118.041 -44.6903" stroke="#A88886" stroke-width="3" stroke-miterlimit="10"/>
</g>
<mask id="mask5_3_732" style="mask-type:luminance" maskUnits="userSpaceOnUse" x="0" y="0" width="197" height="114">
<path d="M98.5 113.737L0 56.8683L98.5 0L197 56.8683L98.5 113.737Z" fill="white"/>
</mask>
<g mask="url(#mask5_3_732)">
<path d="M-96.7441 86.8035L122.771 -39.9324" stroke="#A88886" stroke-width="3" stroke-miterlimit="10"/>
</g>
<mask id="mask6_3_732" style="mask-type:luminance" maskUnits="userSpaceOnUse" x="0" y="0" width="197" height="114">
<path d="M98.5 113.737L0 56.8683L98.5 0L197 56.8683L98.5 113.737Z" fill="white"/>
</mask>
<g mask="url(#mask6_3_732)">
<path d="M-91.9862 91.5331L127.529 -35.2029" stroke="#A88886" stroke-width="3" stroke-miterlimit="10"/>
</g>
<mask id="mask7_3_732" style="mask-type:luminance" maskUnits="userSpaceOnUse" x="0" y="0" width="197" height="114">
<path d="M98.5 113.737L0 56.8683L98.5 0L197 56.8683L98.5 113.737Z" fill="white"/>
</mask>
<g mask="url(#mask7_3_732)">
<path d="M-87.2566 96.291L132.258 -30.4449" stroke="#A88886" stroke-width="3" stroke-miterlimit="10"/>
</g>
<mask id="mask8_3_732" style="mask-type:luminance" maskUnits="userSpaceOnUse" x="0" y="0" width="197" height="114">
<path d="M98.5 113.737L0 56.8683L98.5 0L197 56.8683L98.5 113.737Z" fill="white"/>
</mask>
<g mask="url(#mask8_3_732)">
<path d="M-82.527 101.021L136.988 -25.7154" stroke="#A88886" stroke-width="3" stroke-miterlimit="10"/>
</g>
<mask id="mask9_3_732" style="mask-type:luminance" maskUnits="userSpaceOnUse" x="0" y="0" width="197" height="114">
<path d="M98.5 113.737L0 56.8683L98.5 0L197 56.8683L98.5 113.737Z" fill="white"/>
</mask>
<g mask="url(#mask9_3_732)">
<path d="M-77.7691 105.75L141.746 -20.9858" stroke="#A88886" stroke-width="3" stroke-miterlimit="10"/>
</g>
<mask id="mask10_3_732" style="mask-type:luminance" maskUnits="userSpaceOnUse" x="0" y="0" width="197" height="114">
<path d="M98.5 113.737L0 56.8683L98.5 0L197 56.8683L98.5 113.737Z" fill="white"/>
</mask>
<g mask="url(#mask10_3_732)">
<path d="M-73.0395 110.508L146.476 -16.2279" stroke="#A88886" stroke-width="3" stroke-miterlimit="10"/>
</g>
<mask id="mask11_3_732" style="mask-type:luminance" maskUnits="userSpaceOnUse" x="0" y="0" width="197" height="114">
<path d="M98.5 113.737L0 56.8683L98.5 0L197 56.8683L98.5 113.737Z" fill="white"/>
</mask>
<g mask="url(#mask11_3_732)">
<path d="M-68.2816 115.238L151.205 -11.4983" stroke="#A88886" stroke-width="3" stroke-miterlimit="10"/>
</g>
<mask id="mask12_3_732" style="mask-type:luminance" maskUnits="userSpaceOnUse" x="0" y="0" width="197" height="114">
<path d="M98.5 113.737L0 56.8683L98.5 0L197 56.8683L98.5 113.737Z" fill="white"/>
</mask>
<g mask="url(#mask12_3_732)">
<path d="M-63.552 119.967L155.963 -6.76869" stroke="#A88886" stroke-width="3" stroke-miterlimit="10"/>
</g>
<mask id="mask13_3_732" style="mask-type:luminance" maskUnits="userSpaceOnUse" x="0" y="0" width="197" height="114">
<path d="M98.5 113.737L0 56.8683L98.5 0L197 56.8683L98.5 113.737Z" fill="white"/>
</mask>
<g mask="url(#mask13_3_732)">
<path d="M-58.8224 124.725L160.693 -2.01079" stroke="#A88886" stroke-width="3" stroke-miterlimit="10"/>
</g>
<mask id="mask14_3_732" style="mask-type:luminance" maskUnits="userSpaceOnUse" x="0" y="0" width="197" height="114">
<path d="M98.5 113.737L0 56.8683L98.5 0L197 56.8683L98.5 113.737Z" fill="white"/>
</mask>
<g mask="url(#mask14_3_732)">
<path d="M-54.0645 129.455L165.422 2.71881" stroke="#A88886" stroke-width="3" stroke-miterlimit="10"/>
</g>
<mask id="mask15_3_732" style="mask-type:luminance" maskUnits="userSpaceOnUse" x="0" y="0" width="197" height="114">
<path d="M98.5 113.737L0 56.8683L98.5 0L197 56.8683L98.5 113.737Z" fill="white"/>
</mask>
<g mask="url(#mask15_3_732)">
<path d="M-49.335 134.184L170.18 7.44839" stroke="#A88886" stroke-width="3" stroke-miterlimit="10"/>
</g>
<mask id="mask16_3_732" style="mask-type:luminance" maskUnits="userSpaceOnUse" x="0" y="0" width="197" height="114">
<path d="M98.5 113.737L0 56.8683L98.5 0L197 56.8683L98.5 113.737Z" fill="white"/>
</mask>
<g mask="url(#mask16_3_732)">
<path d="M-44.6054 138.942L174.91 12.2063" stroke="#A88886" stroke-width="3" stroke-miterlimit="10"/>
</g>
<mask id="mask17_3_732" style="mask-type:luminance" maskUnits="userSpaceOnUse" x="0" y="0" width="197" height="114">
<path d="M98.5 113.737L0 56.8683L98.5 0L197 56.8683L98.5 113.737Z" fill="white"/>
</mask>
<g mask="url(#mask17_3_732)">
<path d="M-39.8475 143.672L179.668 16.9359" stroke="#A88886" stroke-width="3" stroke-miterlimit="10"/>
</g>
<mask id="mask18_3_732" style="mask-type:luminance" maskUnits="userSpaceOnUse" x="0" y="0" width="197" height="114">
<path d="M98.5 113.737L0 56.8683L98.5 0L197 56.8683L98.5 113.737Z" fill="white"/>
</mask>
<g mask="url(#mask18_3_732)">
<path d="M-35.1179 148.43L184.397 21.6938" stroke="#A88886" stroke-width="3" stroke-miterlimit="10"/>
</g>
<mask id="mask19_3_732" style="mask-type:luminance" maskUnits="userSpaceOnUse" x="0" y="0" width="197" height="114">
<path d="M98.5 113.737L0 56.8683L98.5 0L197 56.8683L98.5 113.737Z" fill="white"/>
</mask>
<g mask="url(#mask19_3_732)">
<path d="M-30.3883 153.159L189.127 26.4234" stroke="#A88886" stroke-width="3" stroke-miterlimit="10"/>
</g>
<mask id="mask20_3_732" style="mask-type:luminance" maskUnits="userSpaceOnUse" x="0" y="0" width="197" height="114">
<path d="M98.5 113.737L0 56.8683L98.5 0L197 56.8683L98.5 113.737Z" fill="white"/>
</mask>
<g mask="url(#mask20_3_732)">
<path d="M-25.6304 157.889L193.885 31.153" stroke="#A88886" stroke-width="3" stroke-miterlimit="10"/>
</g>
<mask id="mask21_3_732" style="mask-type:luminance" maskUnits="userSpaceOnUse" x="0" y="0" width="197" height="114">
<path d="M98.5 113.737L0 56.8683L98.5 0L197 56.8683L98.5 113.737Z" fill="white"/>
</mask>
<g mask="url(#mask21_3_732)">
<path d="M-20.9008 162.647L198.614 35.9109" stroke="#A88886" stroke-width="3" stroke-miterlimit="10"/>
</g>
<mask id="mask22_3_732" style="mask-type:luminance" maskUnits="userSpaceOnUse" x="0" y="0" width="197" height="114">
<path d="M98.5 113.737L0 56.8683L98.5 0L197 56.8683L98.5 113.737Z" fill="white"/>
</mask>
<g mask="url(#mask22_3_732)">
<path d="M-16.1429 167.376L203.344 40.6405" stroke="#A88886" stroke-width="3" stroke-miterlimit="10"/>
</g>
<mask id="mask23_3_732" style="mask-type:luminance" maskUnits="userSpaceOnUse" x="0" y="0" width="197" height="114">
<path d="M98.5 113.737L0 56.8683L98.5 0L197 56.8683L98.5 113.737Z" fill="white"/>
</mask>
<g mask="url(#mask23_3_732)">
<path d="M-11.4133 172.106L208.102 45.37" stroke="#A88886" stroke-width="3" stroke-miterlimit="10"/>
</g>
<mask id="mask24_3_732" style="mask-type:luminance" maskUnits="userSpaceOnUse" x="0" y="0" width="197" height="114">
<path d="M98.5 113.737L0 56.8683L98.5 0L197 56.8683L98.5 113.737Z" fill="white"/>
</mask>
<g mask="url(#mask24_3_732)">
<path d="M-6.68372 176.864L212.831 50.1279" stroke="#A88886" stroke-width="3" stroke-miterlimit="10"/>
</g>
<mask id="mask25_3_732" style="mask-type:luminance" maskUnits="userSpaceOnUse" x="0" y="0" width="197" height="114">
<path d="M98.5 113.737L0 56.8683L98.5 0L197 56.8683L98.5 113.737Z" fill="white"/>
</mask>
<g mask="url(#mask25_3_732)">
<path d="M-1.92581 181.593L217.561 54.8575" stroke="#A88886" stroke-width="3" stroke-miterlimit="10"/>
</g>
<mask id="mask26_3_732" style="mask-type:luminance" maskUnits="userSpaceOnUse" x="0" y="0" width="197" height="114">
<path d="M98.5 113.737L0 56.8683L98.5 0L197 56.8683L98.5 113.737Z" fill="white"/>
</mask>
<g mask="url(#mask26_3_732)">
<path d="M2.80377 186.323L222.319 59.5871" stroke="#A88886" stroke-width="3" stroke-miterlimit="10"/>
</g>
<mask id="mask27_3_732" style="mask-type:luminance" maskUnits="userSpaceOnUse" x="0" y="0" width="197" height="114">
<path d="M98.5 113.737L0 56.8683L98.5 0L197 56.8683L98.5 113.737Z" fill="white"/>
</mask>
<g mask="url(#mask27_3_732)">
<path d="M7.53336 191.081L227.048 64.345" stroke="#A88886" stroke-width="3" stroke-miterlimit="10"/>
</g>
<mask id="mask28_3_732" style="mask-type:luminance" maskUnits="userSpaceOnUse" x="0" y="0" width="197" height="114">
<path d="M98.5 113.737L0 56.8683L98.5 0L197 56.8683L98.5 113.737Z" fill="white"/>
</mask>
<g mask="url(#mask28_3_732)">
<path d="M12.2913 195.811L231.806 69.0746" stroke="#A88886" stroke-width="3" stroke-miterlimit="10"/>
</g>
<mask id="mask29_3_732" style="mask-type:luminance" maskUnits="userSpaceOnUse" x="0" y="0" width="197" height="114">
<path d="M98.5 113.737L0 56.8683L98.5 0L197 56.8683L98.5 113.737Z" fill="white"/>
</mask>
<g mask="url(#mask29_3_732)">
<path d="M17.0208 200.568L236.536 73.8325" stroke="#A88886" stroke-width="3" stroke-miterlimit="10"/>
</g>
<mask id="mask30_3_732" style="mask-type:luminance" maskUnits="userSpaceOnUse" x="0" y="0" width="197" height="114">
<path d="M98.5 113.737L0 56.8683L98.5 0L197 56.8683L98.5 113.737Z" fill="white"/>
</mask>
<g mask="url(#mask30_3_732)">
<path d="M21.7504 205.298L241.266 78.5621" stroke="#A88886" stroke-width="3" stroke-miterlimit="10"/>
</g>
<mask id="mask31_3_732" style="mask-type:luminance" maskUnits="userSpaceOnUse" x="0" y="0" width="197" height="114">
<path d="M98.5 113.737L0 56.8683L98.5 0L197 56.8683L98.5 113.737Z" fill="white"/>
</mask>
<g mask="url(#mask31_3_732)">
<path d="M26.5083 210.028L246.023 83.2917" stroke="#A88886" stroke-width="3" stroke-miterlimit="10"/>
</g>
<mask id="mask32_3_732" style="mask-type:luminance" maskUnits="userSpaceOnUse" x="0" y="0" width="197" height="114">
<path d="M98.5 113.737L0 56.8683L98.5 0L197 56.8683L98.5 113.737Z" fill="white"/>
</mask>
<g mask="url(#mask32_3_732)">
<path d="M31.2379 214.786L250.753 88.0496" stroke="#A88886" stroke-width="3" stroke-miterlimit="10"/>
</g>
<mask id="mask33_3_732" style="mask-type:luminance" maskUnits="userSpaceOnUse" x="0" y="0" width="197" height="114">
<path d="M98.5 113.737L0 56.8683L98.5 0L197 56.8683L98.5 113.737Z" fill="white"/>
</mask>
<g mask="url(#mask33_3_732)">
<path d="M250.753 63.0989L31.2379 -63.637" stroke="#A88886" stroke-width="3" stroke-miterlimit="10"/>
</g>
<mask id="mask34_3_732" style="mask-type:luminance" maskUnits="userSpaceOnUse" x="0" y="0" width="197" height="114">
<path d="M98.5 113.737L0 56.8683L98.5 0L197 56.8683L98.5 113.737Z" fill="white"/>
</mask>
<g mask="url(#mask34_3_732)">
<path d="M246.023 67.8285L26.5083 -58.9074" stroke="#A88886" stroke-width="3" stroke-miterlimit="10"/>
</g>
<mask id="mask35_3_732" style="mask-type:luminance" maskUnits="userSpaceOnUse" x="0" y="0" width="197" height="114">
<path d="M98.5 113.737L0 56.8683L98.5 0L197 56.8683L98.5 113.737Z" fill="white"/>
</mask>
<g mask="url(#mask35_3_732)">
<path d="M241.266 72.5864L21.7504 -54.1495" stroke="#A88886" stroke-width="3" stroke-miterlimit="10"/>
</g>
<mask id="mask36_3_732" style="mask-type:luminance" maskUnits="userSpaceOnUse" x="0" y="0" width="197" height="114">
<path d="M98.5 113.737L0 56.8683L98.5 0L197 56.8683L98.5 113.737Z" fill="white"/>
</mask>
<g mask="url(#mask36_3_732)">
<path d="M236.536 77.316L17.0208 -49.4199" stroke="#A88886" stroke-width="3" stroke-miterlimit="10"/>
</g>
<mask id="mask37_3_732" style="mask-type:luminance" maskUnits="userSpaceOnUse" x="0" y="0" width="197" height="114">
<path d="M98.5 113.737L0 56.8683L98.5 0L197 56.8683L98.5 113.737Z" fill="white"/>
</mask>
<g mask="url(#mask37_3_732)">
<path d="M231.806 82.0456L12.2913 -44.6903" stroke="#A88886" stroke-width="3" stroke-miterlimit="10"/>
</g>
<mask id="mask38_3_732" style="mask-type:luminance" maskUnits="userSpaceOnUse" x="0" y="0" width="197" height="114">
<path d="M98.5 113.737L0 56.8683L98.5 0L197 56.8683L98.5 113.737Z" fill="white"/>
</mask>
<g mask="url(#mask38_3_732)">
<path d="M227.048 86.8035L7.53336 -39.9324" stroke="#A88886" stroke-width="3" stroke-miterlimit="10"/>
</g>
<mask id="mask39_3_732" style="mask-type:luminance" maskUnits="userSpaceOnUse" x="0" y="0" width="197" height="114">
<path d="M98.5 113.737L0 56.8683L98.5 0L197 56.8683L98.5 113.737Z" fill="white"/>
</mask>
<g mask="url(#mask39_3_732)">
<path d="M222.319 91.5331L2.80377 -35.2029" stroke="#A88886" stroke-width="3" stroke-miterlimit="10"/>
</g>
<mask id="mask40_3_732" style="mask-type:luminance" maskUnits="userSpaceOnUse" x="0" y="0" width="197" height="114">
<path d="M98.5 113.737L0 56.8683L98.5 0L197 56.8683L98.5 113.737Z" fill="white"/>
</mask>
<g mask="url(#mask40_3_732)">
<path d="M217.561 96.291L-1.92581 -30.4449" stroke="#A88886" stroke-width="3" stroke-miterlimit="10"/>
</g>
<mask id="mask41_3_732" style="mask-type:luminance" maskUnits="userSpaceOnUse" x="0" y="0" width="197" height="114">
<path d="M98.5 113.737L0 56.8683L98.5 0L197 56.8683L98.5 113.737Z" fill="white"/>
</mask>
<g mask="url(#mask41_3_732)">
<path d="M212.831 101.021L-6.68372 -25.7154" stroke="#A88886" stroke-width="3" stroke-miterlimit="10"/>
</g>
<mask id="mask42_3_732" style="mask-type:luminance" maskUnits="userSpaceOnUse" x="0" y="0" width="197" height="114">
<path d="M98.5 113.737L0 56.8683L98.5 0L197 56.8683L98.5 113.737Z" fill="white"/>
</mask>
<g mask="url(#mask42_3_732)">
<path d="M208.102 105.75L-11.4133 -20.9858" stroke="#A88886" stroke-width="3" stroke-miterlimit="10"/>
</g>
<mask id="mask43_3_732" style="mask-type:luminance" maskUnits="userSpaceOnUse" x="0" y="0" width="197" height="114">
<path d="M98.5 113.737L0 56.8683L98.5 0L197 56.8683L98.5 113.737Z" fill="white"/>
</mask>
<g mask="url(#mask43_3_732)">
<path d="M203.344 110.508L-16.1429 -16.2279" stroke="#A88886" stroke-width="3" stroke-miterlimit="10"/>
</g>
<mask id="mask44_3_732" style="mask-type:luminance" maskUnits="userSpaceOnUse" x="0" y="0" width="197" height="114">
<path d="M98.5 113.737L0 56.8683L98.5 0L197 56.8683L98.5 113.737Z" fill="white"/>
</mask>
<g mask="url(#mask44_3_732)">
<path d="M198.614 115.238L-20.9008 -11.4983" stroke="#A88886" stroke-width="3" stroke-miterlimit="10"/>
</g>
<mask id="mask45_3_732" style="mask-type:luminance" maskUnits="userSpaceOnUse" x="0" y="0" width="197" height="114">
<path d="M98.5 113.737L0 56.8683L98.5 0L197 56.8683L98.5 113.737Z" fill="white"/>
</mask>
<g mask="url(#mask45_3_732)">
<path d="M193.885 119.967L-25.6304 -6.76869" stroke="#A88886" stroke-width="3" stroke-miterlimit="10"/>
</g>
<mask id="mask46_3_732" style="mask-type:luminance" maskUnits="userSpaceOnUse" x="0" y="0" width="197" height="114">
<path d="M98.5 113.737L0 56.8683L98.5 0L197 56.8683L98.5 113.737Z" fill="white"/>
</mask>
<g mask="url(#mask46_3_732)">
<path d="M189.127 124.725L-30.3883 -2.01079" stroke="#A88886" stroke-width="3" stroke-miterlimit="10"/>
</g>
<mask id="mask47_3_732" style="mask-type:luminance" maskUnits="userSpaceOnUse" x="0" y="0" width="197" height="114">
<path d="M98.5 113.737L0 56.8683L98.5 0L197 56.8683L98.5 113.737Z" fill="white"/>
</mask>
<g mask="url(#mask47_3_732)">
<path d="M184.397 129.455L-35.1179 2.71881" stroke="#A88886" stroke-width="3" stroke-miterlimit="10"/>
</g>
<mask id="mask48_3_732" style="mask-type:luminance" maskUnits="userSpaceOnUse" x="0" y="0" width="197" height="114">
<path d="M98.5 113.737L0 56.8683L98.5 0L197 56.8683L98.5 113.737Z" fill="white"/>
</mask>
<g mask="url(#mask48_3_732)">
<path d="M179.668 134.184L-39.8475 7.44839" stroke="#A88886" stroke-width="3" stroke-miterlimit="10"/>
</g>
<mask id="mask49_3_732" style="mask-type:luminance" maskUnits="userSpaceOnUse" x="0" y="0" width="197" height="114">
<path d="M98.5 113.737L0 56.8683L98.5 0L197 56.8683L98.5 113.737Z" fill="white"/>
</mask>
<g mask="url(#mask49_3_732)">
<path d="M174.91 138.942L-44.6054 12.2063" stroke="#A88886" stroke-width="3" stroke-miterlimit="10"/>
</g>
<mask id="mask50_3_732" style="mask-type:luminance" maskUnits="userSpaceOnUse" x="0" y="0" width="197" height="114">
<path d="M98.5 113.737L0 56.8683L98.5 0L197 56.8683L98.5 113.737Z" fill="white"/>
</mask>
<g mask="url(#mask50_3_732)">
<path d="M170.18 143.672L-49.335 16.9359" stroke="#A88886" stroke-width="3" stroke-miterlimit="10"/>
</g>
<mask id="mask51_3_732" style="mask-type:luminance" maskUnits="userSpaceOnUse" x="0" y="0" width="197" height="114">
<path d="M98.5 113.737L0 56.8683L98.5 0L197 56.8683L98.5 113.737Z" fill="white"/>
</mask>
<g mask="url(#mask51_3_732)">
<path d="M165.422 148.43L-54.0645 21.6938" stroke="#A88886" stroke-width="3" stroke-miterlimit="10"/>
</g>
<mask id="mask52_3_732" style="mask-type:luminance" maskUnits="userSpaceOnUse" x="0" y="0" width="197" height="114">
<path d="M98.5 113.737L0 56.8683L98.5 0L197 56.8683L98.5 113.737Z" fill="white"/>
</mask>
<g mask="url(#mask52_3_732)">
<path d="M132.258 181.593L-87.2566 54.8575" stroke="#A88886" stroke-width="3" stroke-miterlimit="10"/>
</g>
<mask id="mask53_3_732" style="mask-type:luminance" maskUnits="userSpaceOnUse" x="0" y="0" width="197" height="114">
<path d="M98.5 113.737L0 56.8683L98.5 0L197 56.8683L98.5 113.737Z" fill="white"/>
</mask>
<g mask="url(#mask53_3_732)">
<path d="M127.529 186.323L-91.9862 59.5871" stroke="#A88886" stroke-width="3" stroke-miterlimit="10"/>
</g>
<mask id="mask54_3_732" style="mask-type:luminance" maskUnits="userSpaceOnUse" x="0" y="0" width="197" height="114">
<path d="M98.5 113.737L0 56.8683L98.5 0L197 56.8683L98.5 113.737Z" fill="white"/>
</mask>
<g mask="url(#mask54_3_732)">
<path d="M122.771 191.081L-96.7441 64.345" stroke="#A88886" stroke-width="3" stroke-miterlimit="10"/>
</g>
<mask id="mask55_3_732" style="mask-type:luminance" maskUnits="userSpaceOnUse" x="0" y="0" width="197" height="114">
<path d="M98.5 113.737L0 56.8683L98.5 0L197 56.8683L98.5 113.737Z" fill="white"/>
</mask>
<g mask="url(#mask55_3_732)">
<path d="M118.041 195.811L-101.474 69.0746" stroke="#A88886" stroke-width="3" stroke-miterlimit="10"/>
</g>
<mask id="mask56_3_732" style="mask-type:luminance" maskUnits="userSpaceOnUse" x="0" y="0" width="197" height="114">
<path d="M98.5 113.737L0 56.8683L98.5 0L197 56.8683L98.5 113.737Z" fill="white"/>
</mask>
<g mask="url(#mask56_3_732)">
<path d="M113.284 200.568L-106.203 73.8325" stroke="#A88886" stroke-width="3" stroke-miterlimit="10"/>
</g>
<mask id="mask57_3_732" style="mask-type:luminance" maskUnits="userSpaceOnUse" x="0" y="0" width="197" height="114">
<path d="M98.5 113.737L0 56.8683L98.5 0L197 56.8683L98.5 113.737Z" fill="white"/>
</mask>
<g mask="url(#mask57_3_732)">
<path d="M108.554 205.298L-110.961 78.5621" stroke="#A88886" stroke-width="3" stroke-miterlimit="10"/>
</g>
<mask id="mask58_3_732" style="mask-type:luminance" maskUnits="userSpaceOnUse" x="0" y="0" width="197" height="114">
<path d="M98.5 113.737L0 56.8683L98.5 0L197 56.8683L98.5 113.737Z" fill="white"/>
</mask>
<g mask="url(#mask58_3_732)">
<path d="M103.824 210.028L-115.691 83.2917" stroke="#A88886" stroke-width="3" stroke-miterlimit="10"/>
</g>
<mask id="mask59_3_732" style="mask-type:luminance" maskUnits="userSpaceOnUse" x="0" y="0" width="197" height="114">
<path d="M98.5 113.737L0 56.8683L98.5 0L197 56.8683L98.5 113.737Z" fill="white"/>
</mask>
<g mask="url(#mask59_3_732)">
<path d="M99.0664 214.786L-120.42 88.0496" stroke="#A88886" stroke-width="3" stroke-miterlimit="10"/>
</g>
<path d="M76.2681 56.6418L106.317 74.0025L136.337 56.6418L106.317 39.3094L76.2681 56.6418Z" fill="#FFFF00"/>
<path d="M76.2681 21.9487L106.317 39.3094L136.337 21.9487L106.317 4.61632L76.2681 21.9487Z" fill="#A69DAA"/>
<path d="M80.1198 21.9487L106.317 37.072L132.485 21.9487L106.317 6.85367L80.1198 21.9487Z" fill="#C0F2E1"/>
<path d="M76.2681 21.9487V56.6418L106.317 74.0025V39.3094L76.2681 21.9487Z" fill="#6B5F5C"/>
<path d="M136.337 56.6418V21.9487L106.317 39.3094V74.0025L136.337 56.6418Z" fill="#52413D"/>
<path d="M121.695 48.1738L107.449 39.9608L135.204 23.9312L121.695 48.1738Z" fill="#52413D"/>
<path d="M121.468 46.956L109.573 40.0741L132.797 26.65L121.468 46.956Z" fill="#FFFF00" stroke="#F15A24" stroke-miterlimit="10"/>
<path d="M121.695 48.1738L135.204 55.9904V23.9312L121.695 48.1738Z" fill="#52413D"/>
<path d="M134.439 55.5656V25.2339L108.214 40.3856V70.7172L134.439 55.5656Z" fill="#52413D"/>
<path d="M78.1656 55.5656V25.2339L104.419 40.3856V70.7172L78.1656 55.5656Z" fill="#9EB293"/>
<path d="M121.468 46.956L109.573 40.0741L132.797 26.65L121.468 46.956Z" fill="#86A277"/>
<path d="M122.799 47.8056L134.383 54.4894V27.0464L122.799 47.8056Z" fill="#86A277"/>
<path d="M132.485 21.9487L128.265 19.5131V21.269L83.5466 21.2973V19.9946L80.1198 21.9487L83.5466 23.9312V22.685L128.265 22.6284V24.4126L132.485 21.9487Z" fill="#A69DAA"/>
<path d="M104.419 43.7841V40.3856L102.125 39.0545L102.946 40.7538L78.9303 54.1495L78.1656 52.7052V55.5656L80.318 56.7834L79.4967 55.2257L103.456 41.83L104.419 43.7841Z" fill="#6B5F5C"/>
<path d="M42.368 71.8784L72.3881 89.2391L102.437 71.8784L72.3881 54.546L42.368 71.8784Z" fill="#FFFF00"/>
<path d="M42.368 37.1853L72.3881 54.546L102.437 37.1853L72.3881 19.8529L42.368 37.1853Z" fill="#A69DAA"/>
<path d="M46.2197 37.1853L72.3881 52.3086L98.5566 37.1853L72.3881 22.0903L46.2197 37.1853Z" fill="#C0F2E1"/>
<path d="M42.368 37.1853V71.8784L72.3881 89.2391V54.546L42.368 37.1853Z" fill="#6B5F5C"/>
<path d="M102.437 71.8784V37.1853L72.3881 54.546V89.2391L102.437 71.8784Z" fill="#52413D"/>
<path d="M87.7664 63.4387L73.521 55.1974L101.275 39.1678L87.7664 63.4387Z" fill="#52413D"/>
<path d="M87.5681 62.1926L75.645 55.3107L98.8681 41.9149L87.5681 62.1926Z" fill="#FFFF00" stroke="#F15A24" stroke-miterlimit="10"/>
<path d="M87.7664 63.4387L101.275 71.227V39.1678L87.7664 63.4387Z" fill="#52413D"/>
<path d="M100.539 70.8022V40.4705L74.2856 55.6222V85.9538L100.539 70.8022Z" fill="#52413D"/>
<path d="M44.2372 70.8022V40.4705L70.4906 55.6222V85.9538L44.2372 70.8022Z" fill="#9EB293"/>
<path d="M87.5681 62.1926L75.645 55.3107L98.8681 41.9149L87.5681 62.1926Z" fill="#86A277"/>
<path d="M88.8709 63.0423L100.454 69.726V42.2831L88.8709 63.0423Z" fill="#86A277"/>
<path d="M98.5566 37.1853L94.3368 34.7497V36.5056L49.6182 36.5622V35.2311L46.2197 37.1853L49.6182 39.1677V37.9216L94.3368 37.865V39.6492L98.5566 37.1853Z" fill="#A69DAA"/>
<path d="M70.4906 59.0207V55.6222L68.1966 54.2911L69.0179 55.9904L45.0018 69.3861L44.2372 67.9701V70.8022L46.3896 72.02L45.5683 70.4623L69.556 57.0665L70.4906 59.0207Z" fill="#6B5F5C"/>
</svg>
