<svg width="305" height="251" viewBox="0 0 305 251" fill="none" xmlns="http://www.w3.org/2000/svg">
<path d="M208.786 15.9965H202.426L202.391 12.4674H207.732C208.673 12.4674 209.444 12.3475 210.045 12.1076C210.646 11.8564 211.094 11.4966 211.389 11.0284C211.695 10.5487 211.848 9.96619 211.848 9.28093C211.848 8.5043 211.7 7.87614 211.406 7.39645C211.122 6.91677 210.674 6.56843 210.062 6.35142C209.461 6.13442 208.684 6.02592 207.732 6.02592H204.194V26.9436H199.092V2H207.732C209.172 2 210.459 2.13705 211.593 2.41116C212.738 2.68526 213.707 3.10213 214.501 3.66176C215.295 4.2214 215.901 4.9295 216.321 5.78608C216.74 6.63124 216.95 7.63629 216.95 8.80124C216.95 9.82914 216.718 10.7771 216.253 11.6451C215.799 12.5131 215.079 13.2212 214.093 13.7694C213.118 14.3176 211.842 14.6203 210.266 14.6774L208.786 15.9965ZM208.565 26.9436H201.031L203.021 22.9348H208.565C209.461 22.9348 210.192 22.792 210.759 22.5065C211.326 22.2096 211.746 21.8098 212.018 21.3073C212.29 20.8048 212.426 20.228 212.426 19.577C212.426 18.8461 212.301 18.2122 212.052 17.6754C211.814 17.1386 211.428 16.7275 210.895 16.4419C210.363 16.145 209.66 15.9965 208.786 15.9965H203.871L203.905 12.4674H210.028L211.202 13.8551C212.71 13.8322 213.923 14.1006 214.841 14.6602C215.771 15.2085 216.446 15.9223 216.865 16.8017C217.296 17.6811 217.511 18.6234 217.511 19.6284C217.511 21.2274 217.166 22.575 216.474 23.6715C215.782 24.7565 214.768 25.5731 213.43 26.1213C212.103 26.6695 210.482 26.9436 208.565 26.9436Z" fill="#34AB3C"/>
<path d="M221.338 2H230.574C232.467 2 234.094 2.28553 235.455 2.85658C236.827 3.42763 237.881 4.27279 238.618 5.39206C239.355 6.51132 239.724 7.88756 239.724 9.52077C239.724 10.857 239.497 12.0049 239.043 12.9642C238.601 13.9122 237.972 14.7059 237.156 15.3455C236.351 15.9737 235.404 16.4762 234.315 16.8531L232.7 17.7097H224.672L224.638 13.7009H230.608C231.503 13.7009 232.246 13.541 232.836 13.2212C233.425 12.9014 233.867 12.456 234.162 11.8849C234.468 11.3139 234.621 10.6515 234.621 9.89766C234.621 9.09819 234.474 8.40722 234.179 7.82474C233.884 7.24227 233.437 6.79685 232.836 6.48848C232.235 6.18011 231.481 6.02592 230.574 6.02592H226.441V26.9436H221.338V2ZM235.183 26.9436L229.536 15.8252L234.928 15.7909L240.642 26.7038V26.9436H235.183Z" fill="#34AB3C"/>
<path d="M208.021 50.9735L213.855 31.2379H219.535L210.912 56.1815H207.171L208.021 50.9735ZM202.647 31.2379L208.463 50.9735L209.348 56.1815H205.572L197 31.2379H202.647Z" fill="#34AB3C"/>
<path d="M230.625 35.5037L223.889 56.1815H218.464L227.665 31.2379H231.118L230.625 35.5037ZM236.22 56.1815L229.468 35.5037L228.924 31.2379H232.41L241.663 56.1815H236.22ZM235.914 46.8962V50.9221H222.835V46.8962H235.914Z" fill="#34AB3C"/>
<path d="M259.878 52.1727V56.1815H247.411V52.1727H259.878ZM249.061 31.2379V56.1815H243.959V31.2379H249.061Z" fill="#34AB3C"/>
<path d="M282.022 43.1272V44.3093C282.022 46.2052 281.767 47.907 281.257 49.4145C280.747 50.9221 280.027 52.207 279.097 53.2692C278.167 54.3199 277.056 55.1251 275.763 55.6847C274.482 56.2443 273.059 56.5242 271.494 56.5242C269.941 56.5242 268.518 56.2443 267.226 55.6847C265.944 55.1251 264.833 54.3199 263.892 53.2692C262.951 52.207 262.22 50.9221 261.698 49.4145C261.188 47.907 260.933 46.2052 260.933 44.3093V43.1272C260.933 41.2199 261.188 39.5182 261.698 38.022C262.208 36.5145 262.928 35.2296 263.858 34.1674C264.799 33.1053 265.91 32.2944 267.191 31.7347C268.484 31.1751 269.907 30.8953 271.46 30.8953C273.025 30.8953 274.448 31.1751 275.729 31.7347C277.022 32.2944 278.133 33.1053 279.063 34.1674C280.004 35.2296 280.73 36.5145 281.24 38.022C281.762 39.5182 282.022 41.2199 282.022 43.1272ZM276.869 44.3093V43.093C276.869 41.7681 276.75 40.6032 276.512 39.5981C276.274 38.5931 275.922 37.7479 275.457 37.0627C274.992 36.3774 274.426 35.8635 273.757 35.5208C273.088 35.1668 272.322 34.9897 271.46 34.9897C270.599 34.9897 269.833 35.1668 269.164 35.5208C268.507 35.8635 267.946 36.3774 267.481 37.0627C267.027 37.7479 266.681 38.5931 266.443 39.5981C266.205 40.6032 266.086 41.7681 266.086 43.093V44.3093C266.086 45.6227 266.205 46.7877 266.443 47.8042C266.681 48.8092 267.033 49.6601 267.498 50.3568C267.963 51.042 268.529 51.5617 269.198 51.9158C269.867 52.2698 270.633 52.4468 271.494 52.4468C272.356 52.4468 273.122 52.2698 273.791 51.9158C274.46 51.5617 275.021 51.042 275.474 50.3568C275.928 49.6601 276.274 48.8092 276.512 47.8042C276.75 46.7877 276.869 45.6227 276.869 44.3093Z" fill="#34AB3C"/>
<path d="M285.696 31.2379H294.931C296.825 31.2379 298.452 31.5234 299.813 32.0945C301.185 32.6656 302.239 33.5107 302.976 34.63C303.713 35.7492 304.082 37.1255 304.082 38.7587C304.082 40.095 303.855 41.2428 303.401 42.2021C302.959 43.1501 302.33 43.9439 301.513 44.5834C300.708 45.2116 299.762 45.7141 298.673 46.091L297.057 46.9476H289.03L288.996 42.9388H294.965C295.861 42.9388 296.604 42.7789 297.193 42.4591C297.783 42.1393 298.225 41.6939 298.52 41.1229C298.826 40.5518 298.979 39.8894 298.979 39.1356C298.979 38.3361 298.832 37.6451 298.537 37.0627C298.242 36.4802 297.794 36.0348 297.193 35.7264C296.592 35.418 295.838 35.2638 294.931 35.2638H290.798V56.1815H285.696V31.2379ZM299.54 56.1815L293.894 45.0631L299.285 45.0289L305 55.9417V56.1815H299.54Z" fill="#34AB3C"/>
<path d="M209.161 64.7416L202.426 85.4194H197L206.201 60.4758H209.654L209.161 64.7416ZM214.756 85.4194L208.004 64.7416L207.46 60.4758H210.946L220.199 85.4194H214.756ZM214.45 76.1341V80.16H201.371V76.1341H214.45Z" fill="#34AB3C"/>
<path d="M242.649 60.4758V85.4194H237.547L227.597 68.699V85.4194H222.495V60.4758H227.597L237.564 77.2134V60.4758H242.649Z" fill="#34AB3C"/>
<path d="M257.65 60.4758V85.4194H252.565V60.4758H257.65ZM265.27 60.4758V64.5018H245.064V60.4758H265.27Z" fill="#34AB3C"/>
<path d="M211.984 108.13C211.984 107.685 211.916 107.285 211.78 106.931C211.655 106.566 211.417 106.234 211.066 105.937C210.714 105.629 210.221 105.326 209.586 105.029C208.951 104.732 208.129 104.424 207.12 104.104C205.997 103.739 204.931 103.328 203.922 102.871C202.924 102.414 202.04 101.883 201.269 101.278C200.509 100.661 199.908 99.947 199.466 99.1361C199.035 98.3252 198.82 97.383 198.82 96.3094C198.82 95.2701 199.047 94.3279 199.5 93.4827C199.954 92.6261 200.589 91.8952 201.405 91.2899C202.221 90.6731 203.185 90.1992 204.296 89.8679C205.419 89.5367 206.649 89.3711 207.987 89.3711C209.813 89.3711 211.406 89.7023 212.766 90.3648C214.127 91.0272 215.181 91.9352 215.93 93.0887C216.689 94.2422 217.069 95.5613 217.069 97.0461H212.001C212.001 96.3151 211.848 95.6756 211.542 95.1273C211.247 94.5677 210.793 94.128 210.181 93.8082C209.58 93.4884 208.82 93.3285 207.902 93.3285C207.018 93.3285 206.281 93.4656 205.691 93.7397C205.101 94.0024 204.659 94.3621 204.364 94.819C204.07 95.2644 203.922 95.7669 203.922 96.3266C203.922 96.7491 204.024 97.1317 204.228 97.4744C204.444 97.817 204.761 98.1368 205.181 98.4337C205.6 98.7307 206.116 99.0105 206.729 99.2732C207.341 99.5359 208.049 99.7929 208.854 100.044C210.204 100.455 211.389 100.918 212.409 101.432C213.441 101.946 214.303 102.522 214.994 103.162C215.686 103.802 216.208 104.527 216.559 105.338C216.911 106.149 217.086 107.068 217.086 108.096C217.086 109.181 216.877 110.152 216.457 111.008C216.037 111.865 215.431 112.59 214.637 113.184C213.843 113.778 212.897 114.229 211.797 114.537C210.697 114.846 209.467 115 208.106 115C206.882 115 205.674 114.84 204.483 114.52C203.293 114.189 202.21 113.692 201.235 113.03C200.271 112.367 199.5 111.522 198.922 110.494C198.344 109.466 198.054 108.25 198.054 106.845H203.174C203.174 107.622 203.293 108.279 203.531 108.815C203.769 109.352 204.104 109.786 204.534 110.117C204.977 110.449 205.498 110.689 206.099 110.837C206.711 110.985 207.38 111.06 208.106 111.06C208.991 111.06 209.716 110.934 210.283 110.683C210.861 110.432 211.287 110.083 211.559 109.638C211.842 109.192 211.984 108.69 211.984 108.13Z" fill="#34AB3C"/>
<path d="M231.628 89.7138V114.657H226.543V89.7138H231.628ZM239.248 89.7138V93.7397H219.042V89.7138H239.248Z" fill="#34AB3C"/>
<path d="M250.388 93.9795L243.653 114.657H238.227L247.428 89.7138H250.881L250.388 93.9795ZM255.983 114.657L249.231 93.9795L248.687 89.7138H252.174L261.426 114.657H255.983ZM255.677 105.372V109.398H242.598V105.372H255.677Z" fill="#34AB3C"/>
<path d="M272.685 89.7138V114.657H267.6V89.7138H272.685ZM280.305 89.7138V93.7397H260.099V89.7138H280.305Z" fill="#34AB3C"/>
<path d="M295.833 108.13C295.833 107.685 295.765 107.285 295.629 106.931C295.504 106.566 295.266 106.234 294.914 105.937C294.563 105.629 294.07 105.326 293.435 105.029C292.8 104.732 291.978 104.424 290.969 104.104C289.846 103.739 288.78 103.328 287.771 102.871C286.773 102.414 285.889 101.883 285.118 101.278C284.358 100.661 283.757 99.947 283.315 99.1361C282.884 98.3252 282.669 97.383 282.669 96.3094C282.669 95.2701 282.895 94.3279 283.349 93.4827C283.803 92.6261 284.437 91.8952 285.254 91.2899C286.07 90.6731 287.034 90.1992 288.145 89.8679C289.268 89.5367 290.498 89.3711 291.836 89.3711C293.661 89.3711 295.254 89.7023 296.615 90.3648C297.976 91.0272 299.03 91.9352 299.779 93.0887C300.538 94.2422 300.918 95.5613 300.918 97.0461H295.85C295.85 96.3151 295.697 95.6756 295.391 95.1273C295.096 94.5677 294.642 94.128 294.03 93.8082C293.429 93.4884 292.669 93.3285 291.751 93.3285C290.866 93.3285 290.129 93.4656 289.54 93.7397C288.95 94.0024 288.508 94.3621 288.213 94.819C287.918 95.2644 287.771 95.7669 287.771 96.3266C287.771 96.7491 287.873 97.1317 288.077 97.4744C288.293 97.817 288.61 98.1368 289.03 98.4337C289.449 98.7307 289.965 99.0105 290.577 99.2732C291.19 99.5359 291.898 99.7929 292.703 100.044C294.053 100.455 295.237 100.918 296.258 101.432C297.29 101.946 298.151 102.522 298.843 103.162C299.535 103.802 300.056 104.527 300.408 105.338C300.759 106.149 300.935 107.068 300.935 108.096C300.935 109.181 300.725 110.152 300.306 111.008C299.886 111.865 299.28 112.59 298.486 113.184C297.692 113.778 296.746 114.229 295.646 114.537C294.546 114.846 293.316 115 291.955 115C290.73 115 289.523 114.84 288.332 114.52C287.142 114.189 286.059 113.692 285.084 113.03C284.12 112.367 283.349 111.522 282.771 110.494C282.192 109.466 281.903 108.25 281.903 106.845H287.023C287.023 107.622 287.142 108.279 287.38 108.815C287.618 109.352 287.952 109.786 288.383 110.117C288.826 110.449 289.347 110.689 289.948 110.837C290.56 110.985 291.229 111.06 291.955 111.06C292.839 111.06 293.565 110.934 294.132 110.683C294.71 110.432 295.135 110.083 295.408 109.638C295.691 109.192 295.833 108.69 295.833 108.13Z" fill="#34AB3C"/>
<path d="M82.2178 96.7045V115.222H20.8317V96.7045H82.2178ZM28.5941 0V115.222H4.83168V0H28.5941ZM74.2178 46.9278V64.9709H20.8317V46.9278H74.2178ZM82.1386 0V18.597H20.8317V0H82.1386Z" fill="#34AB3C"/>
<path d="M159.762 0H183.446V76.1291C183.446 84.9924 181.545 92.4575 177.743 98.5247C173.993 104.592 168.792 109.155 162.139 112.215C155.538 115.275 147.934 116.805 139.327 116.805C130.719 116.805 123.063 115.275 116.356 112.215C109.703 109.155 104.475 104.592 100.673 98.5247C96.9241 92.4575 95.0495 84.9924 95.0495 76.1291V0H118.812V76.1291C118.812 81.2993 119.63 85.5199 121.267 88.7909C122.904 92.0619 125.254 94.4623 128.317 95.9923C131.432 97.5223 135.102 98.2873 139.327 98.2873C143.657 98.2873 147.327 97.5223 150.337 95.9923C153.399 94.4623 155.723 92.0619 157.307 88.7909C158.944 85.5199 159.762 81.2993 159.762 76.1291V0Z" fill="#34AB3C"/>
<path d="M64.8713 219.266C64.8713 217.209 64.5545 215.362 63.9208 213.727C63.3399 212.039 62.231 210.509 60.5941 209.137C58.9571 207.712 56.6601 206.314 53.703 204.943C50.7459 203.571 46.9175 202.147 42.2178 200.669C36.9901 198.981 32.0264 197.082 27.3267 194.972C22.6799 192.861 18.5611 190.408 14.9703 187.612C11.4323 184.763 8.63366 181.466 6.57426 177.72C4.56766 173.974 3.56436 169.622 3.56436 164.662C3.56436 159.861 4.62046 155.509 6.73267 151.605C8.84488 147.648 11.802 144.272 15.604 141.475C19.4059 138.626 23.8944 136.437 29.0693 134.907C34.297 133.377 40.0264 132.612 46.2574 132.612C54.7591 132.612 62.1782 134.142 68.5149 137.202C74.8515 140.262 79.7624 144.456 83.2475 149.785C86.7855 155.113 88.5545 161.207 88.5545 168.065H64.9505C64.9505 164.689 64.2376 161.734 62.8119 159.202C61.4389 156.617 59.3267 154.586 56.4752 153.108C53.6766 151.631 50.1386 150.893 45.8614 150.893C41.7426 150.893 38.3102 151.526 35.5644 152.792C32.8185 154.005 30.7591 155.667 29.3861 157.777C28.0132 159.835 27.3267 162.156 27.3267 164.741C27.3267 166.693 27.802 168.461 28.7525 170.044C29.7558 171.626 31.2343 173.104 33.1881 174.475C35.1419 175.847 37.5446 177.139 40.396 178.353C43.2475 179.566 46.5479 180.753 50.297 181.914C56.5809 183.813 62.099 185.95 66.8515 188.324C71.6568 190.698 75.67 193.362 78.8911 196.317C82.1122 199.271 84.5413 202.621 86.1782 206.367C87.8152 210.113 88.6337 214.36 88.6337 219.108C88.6337 224.12 87.6568 228.604 85.703 232.561C83.7492 236.518 80.9241 239.868 77.2277 242.612C73.5314 245.355 69.1221 247.439 64 248.863C58.8779 250.288 53.1485 251 46.8119 251C41.1089 251 35.4851 250.261 29.9406 248.784C24.396 247.254 19.3531 244.959 14.8119 241.899C10.3234 238.839 6.73267 234.935 4.0396 230.187C1.34653 225.439 0 219.82 0 213.331H23.8416C23.8416 216.919 24.396 219.952 25.505 222.432C26.6139 224.911 28.1716 226.916 30.1782 228.446C32.2376 229.976 34.6667 231.084 37.4653 231.77C40.3168 232.456 43.4323 232.799 46.8119 232.799C50.9307 232.799 54.3102 232.218 56.9505 231.058C59.6436 229.897 61.6238 228.288 62.8911 226.23C64.2112 224.173 64.8713 221.851 64.8713 219.266Z" fill="#34AB3C"/>
<path d="M199.525 189.115V194.576C199.525 203.334 198.337 211.194 195.96 218.158C193.584 225.122 190.231 231.058 185.901 235.964C181.571 240.818 176.396 244.537 170.376 247.122C164.409 249.707 157.782 251 150.495 251C143.261 251 136.634 249.707 130.614 247.122C124.647 244.537 119.472 240.818 115.089 235.964C110.706 231.058 107.3 225.122 104.871 218.158C102.495 211.194 101.307 203.334 101.307 194.576V189.115C101.307 180.305 102.495 172.444 104.871 165.533C107.248 158.569 110.601 152.634 114.931 147.727C119.314 142.821 124.488 139.075 130.455 136.49C136.475 133.905 143.102 132.612 150.337 132.612C157.624 132.612 164.251 133.905 170.218 136.49C176.238 139.075 181.413 142.821 185.743 147.727C190.125 152.634 193.505 158.569 195.881 165.533C198.31 172.444 199.525 180.305 199.525 189.115ZM175.525 194.576V188.957C175.525 182.837 174.97 177.456 173.861 172.813C172.752 168.171 171.116 164.267 168.95 161.101C166.785 157.936 164.145 155.562 161.03 153.979C157.914 152.343 154.35 151.526 150.337 151.526C146.323 151.526 142.759 152.343 139.644 153.979C136.581 155.562 133.967 157.936 131.802 161.101C129.69 164.267 128.079 168.171 126.97 172.813C125.861 177.456 125.307 182.837 125.307 188.957V194.576C125.307 200.643 125.861 206.024 126.97 210.72C128.079 215.362 129.716 219.293 131.881 222.511C134.046 225.676 136.686 228.077 139.802 229.712C142.917 231.348 146.482 232.166 150.495 232.166C154.508 232.166 158.073 231.348 161.188 229.712C164.304 228.077 166.917 225.676 169.03 222.511C171.142 219.293 172.752 215.362 173.861 210.72C174.97 206.024 175.525 200.643 175.525 194.576Z" fill="#34AB3C"/>
<path d="M280.317 134.195H304V210.324C304 219.187 302.099 226.652 298.297 232.72C294.548 238.787 289.347 243.35 282.693 246.41C276.092 249.47 268.488 251 259.881 251C251.274 251 243.617 249.47 236.911 246.41C230.257 243.35 225.03 238.787 221.228 232.72C217.479 226.652 215.604 219.187 215.604 210.324V134.195H239.366V210.324C239.366 215.494 240.185 219.715 241.822 222.986C243.459 226.257 245.809 228.657 248.871 230.187C251.987 231.717 255.657 232.482 259.881 232.482C264.211 232.482 267.881 231.717 270.891 230.187C273.954 228.657 276.277 226.257 277.861 222.986C279.498 219.715 280.317 215.494 280.317 210.324V134.195Z" fill="#34AB3C"/>
</svg>
