<svg width="50" height="50" viewBox="0 0 50 50" fill="none" xmlns="http://www.w3.org/2000/svg">
<g clip-path="url(#clip0_2_24)">
<path d="M15.7295 45.3126C34.5928 45.3126 44.9131 29.6807 44.9131 16.129C44.9131 15.6895 44.9033 15.2403 44.8838 14.8008C46.8914 13.349 48.6239 11.5506 50 9.4903C48.1303 10.3222 46.1451 10.8655 44.1123 11.1016C46.2527 9.81865 47.8553 7.80316 48.623 5.42877C46.6095 6.62209 44.4074 7.46387 42.1113 7.91803C40.5642 6.27418 38.5187 5.18575 36.291 4.82103C34.0633 4.45631 31.7775 4.83561 29.787 5.90029C27.7964 6.96497 26.2121 8.65573 25.2788 10.7112C24.3456 12.7666 24.1155 15.0722 24.624 17.2715C20.5469 17.0669 16.5582 16.0078 12.9166 14.1628C9.27506 12.3178 6.06186 9.72809 3.48535 6.56159C2.17583 8.81935 1.77512 11.491 2.36465 14.0336C2.95418 16.5762 4.48971 18.7989 6.65918 20.2501C5.03047 20.1984 3.43745 19.7598 2.01172 18.9708V19.0977C2.01026 21.4671 2.82937 23.7638 4.32981 25.5975C5.83025 27.4312 7.91942 28.6888 10.2422 29.1563C8.73345 29.5691 7.14996 29.6293 5.61426 29.3321C6.2697 31.3698 7.54494 33.1519 9.26202 34.43C10.9791 35.708 13.0523 36.418 15.1924 36.461C11.5592 39.3149 7.0712 40.8629 2.45117 40.8555C1.63185 40.8543 0.813331 40.8041 0 40.7051C4.69345 43.7162 10.1532 45.3155 15.7295 45.3126Z" fill="#34AB3C"/>
</g>
<defs>
<clipPath id="clip0_2_24">
<rect width="50" height="50" fill="white"/>
</clipPath>
</defs>
</svg>
