<svg width="50" height="50" viewBox="0 0 50 50" fill="none" xmlns="http://www.w3.org/2000/svg">
<path d="M49.5019 15.0001C49.5019 15.0001 49.0137 11.5528 47.5098 10.0392C45.6055 8.04697 43.4766 8.0372 42.5 7.92001C35.5078 7.4122 25.0098 7.4122 25.0098 7.4122H24.9902C24.9902 7.4122 14.4922 7.4122 7.5 7.92001C6.52344 8.0372 4.39453 8.04697 2.49023 10.0392C0.986328 11.5528 0.507812 15.0001 0.507812 15.0001C0.507812 15.0001 0 19.0528 0 23.0958V26.8849C0 30.9278 0.498047 34.9806 0.498047 34.9806C0.498047 34.9806 0.986328 38.4278 2.48047 39.9415C4.38477 41.9337 6.88477 41.8653 7.99805 42.0802C12.002 42.461 25 42.5782 25 42.5782C25 42.5782 35.5078 42.5587 42.5 42.0606C43.4766 41.9435 45.6055 41.9337 47.5098 39.9415C49.0137 38.4278 49.5019 34.9806 49.5019 34.9806C49.5019 34.9806 50 30.9376 50 26.8849V23.0958C50 19.0528 49.5019 15.0001 49.5019 15.0001ZM19.834 31.4845V17.4317L33.3398 24.4825L19.834 31.4845Z" fill="#34AB3C"/>
</svg>
